#!OML:ASF I:\Actors\actors\Patient Classification 2\Patient 1\Session 1\actor1.ASF
:FULLY-SPECIFIED
:DEGREES
263
root -1.02193 18.17 4.2009 8.56449 1.01064 -3.56227
lowerback 30.655 -0.902651 -0.0434145
upperback 8.2285 -1.09262 0.571623
thorax -7.50732 -0.520581 1.05718
lowerneck -6.78491 -8.20039 -6.50225
upperneck 23.0651 -12.0592 7.59874
head 9.21086 -5.46614 2.41887
rclavicle -1.98785e-014 1.39149e-014
rhumerus -33.8059 28.9802 -97.8179
rradius 56.8086
rwrist 19.4768
rhand -11.8904 -34.3697
rfingers 7.12502
rthumb 14.1627 -63.8669
lclavicle -1.98785e-014 1.39149e-014
lhumerus -34.7323 -15.4139 96.9943
lradius 64.407
lwrist -6.83734
lhand 2.20456 -15.1425
lfingers 7.12502
lthumb 27.7002 12.8374
rfemur -22.9766 -3.9437 18.9931
rtibia 32.9108
rfoot -21.3961 -3.48459
rtoes -18.3919
lfemur -31.24 2.10674 -8.71567
ltibia 41.8456
lfoot -18.6683 3.12045
ltoes -58.8036
264
root -1.01234 18.1737 4.2302 8.32847 1.02657 -3.42544
lowerback 29.939 -0.688376 0.0748394
upperback 7.94619 -0.776945 0.714256
thorax -7.4939 -0.372119 1.02841
lowerneck -8.99196 -4.7799 -2.86993
upperneck 23.4022 -7.84126 7.30633
head 9.22949 -3.16878 2.14312
rclavicle -3.18055e-015 -4.77083e-015
rhumerus -34.7073 27.5523 -97.811
rradius 56.9479
rwrist 19.1033
rhand -11.8648 -34.6147
rfingers 7.12502
rthumb 14.1873 -64.1102
lclavicle -3.18055e-015 -4.77083e-015
lhumerus -34.2653 -16.4225 97.8641
lradius 62.4071
lwrist -7.88643
lhand 1.432 -16.7365
lfingers 7.12502
lthumb 26.9613 11.3599
rfemur -22.4982 -3.84914 18.7671
rtibia 32.7189
rfoot -21.477 -3.54112
rtoes -18.2274
lfemur -30.7854 2.04433 -8.90335
ltibia 41.6679
lfoot -18.7306 3.07575
ltoes -58.7573
265
root -1.00012 18.1771 4.25986 7.97403 1.0766 -3.31355
lowerback 29.438 -0.492271 0.39653
upperback 7.74554 -0.428405 0.820123
thorax -7.48889 -0.209401 0.834731
lowerneck -9.83296 -1.09107 1.16071
upperneck 23.2193 -3.31794 6.60991
head 8.99338 -0.782312 1.70128
rclavicle 4.37326e-015 -3.97569e-016
rhumerus -35.5103 26.471 -97.7041
rradius 57.1639
rwrist 18.2746
rhand -11.8335 -35.0772
rfingers 7.12502
rthumb 14.2174 -64.5706
lclavicle 4.37326e-015 -3.97569e-016
lhumerus -33.6959 -17.6521 98.7192
lradius 60.4975
lwrist -8.38299
lhand 2.38087 -16.955
lfingers 7.12502
lthumb 27.8688 10.9977
rfemur -21.9004 -3.80253 18.5559
rtibia 32.5804
rfoot -21.6043 -3.48106
rtoes -17.3878
lfemur -30.2068 1.87779 -9.06019
ltibia 41.5164
lfoot -18.8481 3.08583
ltoes -58.741
266
root -0.987769 18.18 4.28305 7.66415 1.1345 -3.22688
lowerback 28.9821 -0.287328 0.698695
upperback 7.60371 -0.0683191 1.00618
thorax -7.4339 -0.0412836 0.740585
lowerneck -9.91463 2.46395 5.18471
upperneck 22.7838 1.0659 5.64492
head 8.78917 1.48626 1.14666
rclavicle 3.37934e-015 2.5842e-015
rhumerus -36.2211 25.5828 -97.3789
rradius 57.4949
rwrist 17.6149
rhand -11.7814 -35.4965
rfingers 7.12502
rthumb 14.2677 -64.9864
lclavicle 3.37934e-015 2.5842e-015
lhumerus -33.0587 -18.8454 99.6073
lradius 58.7687
lwrist -8.38948
lhand 1.91485 -17.1368
lfingers 7.12502
lthumb 27.4232 10.8873
rfemur -21.3993 -3.81543 18.389
rtibia 32.4791
rfoot -21.7097 -3.42677
rtoes -16.8594
lfemur -29.7233 1.634 -9.17951
ltibia 41.4058
lfoot -18.9665 3.1915
ltoes -58.7728
267
root -0.97361 18.1802 4.2995 7.45457 1.17897 -3.12692
lowerback 28.3262 -0.0415281 0.68064
upperback 7.59212 0.264476 1.37276
thorax -7.13482 0.116614 1.04227
lowerneck -9.80853 6.07509 8.49678
upperneck 22.8368 5.52288 5.12543
head 8.93282 3.77693 0.913097
rclavicle -9.7653e-015 9.93923e-016
rhumerus -36.7505 24.9842 -96.7446
rradius 57.8751
rwrist 17.2202
rhand -11.8544 -35.7043
rfingers 7.12502
rthumb 14.1973 -65.1991
lclavicle -9.7653e-015 9.93923e-016
lhumerus -32.1801 -19.7355 100.532
lradius 57.1113
lwrist -8.0873
lhand 2.11207 -17.0927
lfingers 7.12502
lthumb 27.6118 10.9014
rfemur -21.063 -3.8335 18.2084
rtibia 32.4184
rfoot -21.7772 -3.40221
rtoes -16.7145
lfemur -29.4118 1.47006 -9.33447
ltibia 41.353
lfoot -19.0478 3.26377
ltoes -58.8305
268
root -0.95682 18.1767 4.31307 7.26672 1.2592 -3.04018
lowerback 28.0242 0.150646 1.12911
upperback 7.451 0.644063 1.52522
thorax -7.14843 0.294286 0.82625
lowerneck -8.33055 9.22572 12.2892
upperneck 22.3864 9.58037 4.14592
head 8.87986 5.83889 0.404589
rclavicle 3.13086e-015 -7.50412e-015
rhumerus -37.4829 23.8664 -96.3169
rradius 58.3383
rwrist 16.8564
rhand -12.2241 -35.8691
rfingers 7.12502
rthumb 13.841 -65.3886
lclavicle 3.13086e-015 -7.50412e-015
lhumerus -31.5889 -21.0945 101.348
lradius 55.5753
lwrist -7.69285
lhand 2.01606 -17.0947
lfingers 7.12502
lthumb 27.52 10.9141
rfemur -20.7959 -3.90507 18.0436
rtibia 32.4226
rfoot -21.8364 -3.3984
rtoes -16.8731
lfemur -29.1838 1.35903 -9.49349
ltibia 41.3686
lfoot -19.1382 3.26022
ltoes -58.861
269
root -0.940073 18.1704 4.32286 7.09777 1.38954 -2.9658
lowerback 27.6685 0.365222 1.4307
upperback 7.39132 1.01756 1.78511
thorax -7.0443 0.470617 0.818062
lowerneck -6.63541 11.9953 15.8105
upperneck 22.146 13.3172 3.00234
head 9.03423 7.71582 -0.088644
rclavicle 1.54058e-014 2.18663e-014
rhumerus -38.1557 22.9403 -95.7706
rradius 58.8481
rwrist 16.3756
rhand -12.7978 -36.2354
rfingers 7.12502
rthumb 13.2881 -65.7918
lclavicle 1.54058e-014 2.18663e-014
lhumerus -30.9723 -22.3546 102.192
lradius 54.1832
lwrist -7.47573
lhand 1.40879 -17.2518
lfingers 7.12502
lthumb 26.939 10.848
rfemur -20.6005 -4.05238 17.9042
rtibia 32.5002
rfoot -21.9018 -3.39118
rtoes -17.2561
lfemur -29.0448 1.27303 -9.63988
ltibia 41.4496
lfoot -19.2452 3.1809
ltoes -58.8155
270
root -0.923582 18.162 4.32637 6.97507 1.56002 -2.88502
lowerback 27.3383 0.601825 1.65242
upperback 7.352 1.40346 2.1277
thorax -6.9327 0.654 0.945517
lowerneck -4.81002 14.2606 18.3931
upperneck 22.0221 16.5107 2.37326
head 9.19715 9.31799 -0.297175
rclavicle -9.54166e-015 -1.98785e-015
rhumerus -38.7747 22.231 -95.0482
rradius 59.381
rwrist 15.7628
rhand -13.4135 -36.7407
rfingers 7.12502
rthumb 12.6946 -66.3349
lclavicle -9.54166e-015 -1.98785e-015
lhumerus -30.2976 -23.5693 103.086
lradius 52.7906
lwrist -7.47044
lhand 0.870188 -17.4862
lfingers 7.12502
lthumb 26.4236 10.6921
rfemur -20.4979 -4.24737 17.7553
rtibia 32.6399
rfoot -22.0074 -3.29271
rtoes -17.2445
lfemur -29.0265 1.19896 -9.79416
ltibia 41.589
lfoot -19.3364 3.05334
ltoes -58.7509
271
root -0.906873 18.1521 4.32441 6.8999 1.74328 -2.82972
lowerback 27.0759 0.811934 1.86009
upperback 7.31847 1.75655 2.52113
thorax -6.85077 0.821921 1.14915
lowerneck -2.76639 15.8548 20.4687
upperneck 21.8596 18.9779 1.74831
head 9.28179 10.5498 -0.526622
rclavicle 1.03368e-014 1.07344e-014
rhumerus -39.3723 21.6978 -94.2724
rradius 59.9435
rwrist 15.2721
rhand -14.145 -37.1116
rfingers 7.12502
rthumb 11.9893 -66.7482
lclavicle 1.03368e-014 1.07344e-014
lhumerus -29.5713 -24.6509 103.934
lradius 51.4034
lwrist -7.58573
lhand 0.421533 -17.7823
lfingers 7.12502
lthumb 25.9941 10.4598
rfemur -20.4877 -4.42611 17.6326
rtibia 32.838
rfoot -22.143 -3.20713
rtoes -17.3514
lfemur -29.1059 1.03176 -9.90478
ltibia 41.7775
lfoot -19.4294 3.00122
ltoes -58.7356
272
root -0.890698 18.1406 4.31919 6.86749 1.93022 -2.80576
lowerback 26.8334 0.988738 2.12844
upperback 7.28551 2.07929 2.88247
thorax -6.77601 0.975218 1.29339
lowerneck -1.48681 16.8219 21.3798
upperneck 22.2886 20.4019 2.00399
head 9.43406 11.3087 -0.401
rclavicle 3.97569e-016 -8.74653e-015
rhumerus -40.0428 21.0007 -93.6596
rradius 60.5915
rwrist 15.226
rhand -14.9608 -37.3422
rfingers 7.12502
rthumb 11.2026 -67.0231
lclavicle 3.97569e-016 -8.74653e-015
lhumerus -28.9947 -25.7464 104.671
lradius 50.2457
lwrist -7.62565
lhand -0.136217 -18.0809
lfingers 7.12502
lthumb 25.4599 10.2386
rfemur -20.5599 -4.5796 17.5532
rtibia 33.0823
rfoot -22.2592 -3.193
rtoes -17.8163
lfemur -29.2642 0.837525 -9.97036
ltibia 41.9976
lfoot -19.5186 3.00361
ltoes -58.7818
273
root -0.87638 18.1275 4.31038 6.84156 2.09874 -2.77627
lowerback 26.6138 1.13978 2.43134
upperback 7.29145 2.36896 3.17141
thorax -6.66473 1.11321 1.34974
lowerneck -0.993366 17.2918 21.8264
upperneck 23.3993 20.972 2.46562
head 9.81817 11.6792 -0.183769
rclavicle -1.55052e-014 -1.51076e-014
rhumerus -40.6864 20.2858 -93.1674
rradius 61.3649
rwrist 15.2719
rhand -15.7247 -37.5258
rfingers 7.12502
rthumb 10.4657 -67.2453
lclavicle -1.55052e-014 -1.51076e-014
lhumerus -28.5457 -26.8142 105.246
lradius 49.4232
lwrist -7.54253
lhand -0.617504 -18.3724
lfingers 7.12502
lthumb 24.9988 10.012
rfemur -20.6675 -4.73598 17.4778
rtibia 33.349
rfoot -22.3307 -3.16691
rtoes -18.1492
lfemur -29.435 0.74117 -10.0442
ltibia 42.2189
lfoot -19.5858 2.91082
ltoes -58.7539
274
root -0.8649 18.1157 4.29863 6.80175 2.22667 -2.70554
lowerback 26.3927 1.26747 2.61099
upperback 7.37577 2.58861 3.43136
thorax -6.46881 1.21981 1.46862
lowerneck -0.793348 17.1008 21.7701
upperneck 24.6015 20.624 2.9106
head 10.1443 11.5996 -0.040025
rclavicle 1.35174e-014 1.19271e-014
rhumerus -41.1782 19.8408 -92.6943
rradius 62.1785
rwrist 15.1697
rhand -16.4363 -37.553
rfingers 7.12502
rthumb 9.77927 -67.306
lclavicle 1.35174e-014 1.19271e-014
lhumerus -28.124 -27.5896 105.663
lradius 48.9053
lwrist -7.34891
lhand -0.937317 -18.6373
lfingers 7.12502
lthumb 24.6923 9.78942
rfemur -20.7647 -4.83131 17.3596
rtibia 33.5987
rfoot -22.3912 -3.15014
rtoes -18.3212
lfemur -29.5667 0.695961 -10.1553
ltibia 42.4193
lfoot -19.6688 2.7197
ltoes -58.5736
275
root -0.854452 18.1074 4.28427 6.78525 2.33328 -2.56728
lowerback 26.1971 1.35381 2.68535
upperback 7.49773 2.721 3.63128
thorax -6.24522 1.28578 1.60953
lowerneck -1.17699 16.2723 21.0915
upperneck 25.8114 19.3881 3.13784
head 10.4437 11.0536 0.00295018
rclavicle 2.06736e-014 3.97569e-015
rhumerus -41.5527 19.5987 -92.3078
rradius 63.017
rwrist 15.0211
rhand -17.1158 -37.6993
rfingers 7.12502
rthumb 9.1236 -67.482
lclavicle 2.06736e-014 3.97569e-015
lhumerus -27.7673 -28.16 105.957
lradius 48.6422
lwrist -6.92195
lhand -1.32453 -18.7905
lfingers 7.12502
lthumb 24.3211 9.68651
rfemur -20.8688 -4.83695 17.1646
rtibia 33.7931
rfoot -22.4923 -3.21946
rtoes -18.4648
lfemur -29.7144 0.649998 -10.3453
ltibia 42.5899
lfoot -19.7182 2.59067
ltoes -58.4742
